<svg width="130" height="130" viewBox="0 0 130 130" fill="none" xmlns="http://www.w3.org/2000/svg">
<circle cx="65" cy="65" r="65" fill="#EDF2F6"/>
<path d="M70.397 84.4184C70.397 88.8491 72.1571 93.0984 75.2901 96.2315C78.4232 99.3645 82.6724 101.125 87.1032 101.125C91.534 101.125 95.7833 99.3645 98.9163 96.2315C102.049 93.0984 103.809 88.8491 103.809 84.4184C102.947 62.2746 71.2595 62.2746 70.397 84.4184ZM85.2282 71.5934C85.2282 71.0961 85.4258 70.6192 85.7774 70.2675C86.129 69.9159 86.6059 69.7184 87.1032 69.7184C87.6005 69.7184 88.0774 69.9159 88.429 70.2675C88.7807 70.6192 88.9782 71.0961 88.9782 71.5934V89.4996C88.9782 89.9969 88.7807 90.4738 88.429 90.8254C88.0774 91.1771 87.6005 91.3746 87.1032 91.3746C86.6059 91.3746 86.129 91.1771 85.7774 90.8254C85.4258 90.4738 85.2282 89.9969 85.2282 89.4996V71.5934ZM84.4782 95.4809C84.4782 94.7847 84.7548 94.117 85.2471 93.6247C85.7394 93.1324 86.407 92.8559 87.1032 92.8559C87.7994 92.8559 88.4671 93.1324 88.9594 93.6247C89.4517 94.117 89.7282 94.7847 89.7282 95.4809C89.7282 96.1771 89.4517 96.8447 88.9594 97.337C88.4671 97.8293 87.7994 98.1059 87.1032 98.1059C86.407 98.1059 85.7394 97.8293 85.2471 97.337C84.7548 96.8447 84.4782 96.1771 84.4782 95.4809Z" fill="black"/>
<path d="M72.6844 69.925C68.6661 68.342 64.3845 67.5341 60.0657 67.5438C52.8472 67.5402 45.8083 69.7943 39.9346 73.9902C34.0609 78.1862 29.6465 84.1141 27.3094 90.9437C26.9825 92.0261 26.9135 93.1699 27.1079 94.2837C27.3023 95.3975 27.7548 96.4503 28.4291 97.3578C29.1034 98.2654 29.9807 99.0024 30.991 99.5101C32.0012 100.018 33.1163 100.282 34.2469 100.281H74.2032C64.9594 93.3063 64.1157 77.8188 72.6844 69.925ZM60.0657 63.7938C83.7844 62.8187 83.8032 28.975 60.0657 28C55.3191 28 50.767 29.8856 47.4107 33.2419C44.0543 36.5982 42.1688 41.1503 42.1688 45.8969C42.1688 50.6434 44.0543 55.1956 47.4107 58.5519C50.767 61.9082 55.3191 63.7938 60.0657 63.7938Z" fill="black"/>
</svg>
