<svg width="514" height="515" viewBox="0 0 514 515" fill="none" xmlns="http://www.w3.org/2000/svg">
<rect x="0.0620117" y="0.475586" width="513" height="514" fill="#EDF2F6"/>
<g opacity="0.2">
<path d="M256.562 414.975C338.351 414.975 404.654 404.08 404.654 390.641C404.654 377.202 338.351 366.307 256.562 366.307C174.773 366.307 108.47 377.202 108.47 390.641C108.47 404.08 174.773 414.975 256.562 414.975Z" fill="#888DA8"/>
</g>
<path d="M152.083 361.247C143.936 356.037 143.505 354.792 146.226 344.547C141.75 340.901 135.343 337.558 138.527 330.345C141.287 324.097 147.591 324.975 153.71 325.693C154.604 323.323 155.737 320.93 156.319 318.408C156.519 317.539 155.617 316.023 154.772 315.369C149.083 310.908 147.128 307.222 148.588 303.153C150.016 299.179 154.668 297.304 161.641 297.879C162.296 297.935 162.942 297.959 163.907 298.015C164.961 295.318 166.006 292.645 167.099 289.844C162.248 286.03 155.745 282.695 159.08 275.235C161.793 269.171 167.881 269.897 173.817 270.695C174.695 268.293 175.588 265.844 176.594 263.091C175.548 262.341 174.519 261.543 173.442 260.833C168.423 257.514 166.413 253.413 167.785 249.232C169.03 245.434 173.227 243.399 179.051 243.543C180.806 243.591 182.953 245.011 184.142 242.123C185.291 239.322 186.088 237.232 182.522 235.309C180.495 234.216 178.812 231.854 177.775 229.684C175.708 225.391 177.91 220.58 182.482 219.136C184.7 218.433 187.206 218.697 189.527 218.25C190.852 217.995 192.065 217.197 193.325 216.646C192.599 215.465 191.993 214.181 191.107 213.136C190.349 212.242 189.216 211.675 188.347 210.862C185.522 208.213 183.99 204.957 185.338 201.183C186.655 197.497 189.87 194.888 193.597 195.406C199.972 196.292 202.549 193.579 204.552 187.978C206.77 181.771 211.533 179.457 218.618 180.071C233.571 181.372 248.515 182.816 263.459 184.292C283.558 186.279 303.649 188.393 323.756 190.356C334.2 191.369 344.676 192.095 355.12 193.085C363.53 193.883 366.155 197.106 365.684 205.492C365.637 206.298 366.139 207.167 366.49 207.957C367.695 210.678 368.868 213.415 370.208 216.064C370.767 217.165 371.605 218.202 372.53 219.016C376.863 222.83 379.081 227.346 377.437 233.178C363.075 284.187 348.705 335.204 334.312 386.205C331.575 395.891 324.33 400.91 314.197 399.713C290.181 396.872 266.188 393.833 242.188 390.825C218.323 387.84 194.458 384.816 170.602 381.768C167.442 381.362 164.274 380.907 161.186 380.173C152.466 378.106 148.995 371.994 151.516 363.433C151.732 362.699 151.907 361.941 152.083 361.247ZM156.176 329.922C155.625 330.584 155.386 330.76 155.298 330.991C153.351 336.074 151.404 341.156 149.49 346.255C146.96 352.997 149.107 356.715 156.351 357.648C174.136 359.938 191.945 362.125 209.746 364.311C239.938 368.021 270.138 371.667 300.33 375.417C308.652 376.455 313.886 373.391 316.335 365.284C319.639 354.353 322.75 343.366 325.934 332.403C338.086 290.435 350.245 248.466 362.381 206.489C364.121 200.481 361.727 196.875 355.567 196.276C343.663 195.111 331.758 194.034 319.854 192.893C287.053 189.765 254.252 186.678 221.467 183.462C211.581 182.497 206.474 186.359 204.943 196.627C207.113 197.768 209.459 198.75 211.501 200.162C212.706 201 214.326 202.635 214.182 203.697C213.983 205.141 212.339 206.449 211.118 207.598C210.982 207.726 208.724 206.298 208.812 205.859C209.794 200.904 205.98 201.159 202.836 200.018C200.411 206.513 198.065 212.8 195.687 219.184C198.105 220.396 200.235 221.218 202.078 222.455C203.562 223.452 205.373 224.777 205.772 226.293C206.068 227.41 204.416 229.157 203.339 230.362C203.187 230.529 200.434 229.093 200.498 228.638C201.192 224.051 197.546 224.226 194.434 222.734C191.753 230.194 189.176 237.367 186.551 244.668C189.041 245.953 191.371 246.934 193.429 248.314C194.785 249.224 196.533 250.652 196.652 251.969C196.764 253.229 195.097 254.777 193.924 255.886C193.716 256.086 191.155 254.602 191.235 254.179C192.113 249.463 188.498 249.607 185.291 248.386C182.522 256.165 179.841 263.729 177.136 271.341C179.673 272.706 181.995 273.727 184.046 275.131C185.41 276.065 186.799 277.373 187.469 278.833C188.586 281.275 186.759 282.631 184.684 283.054C183.91 283.214 181.987 281.841 182.059 281.419C182.897 276.384 179.027 276.464 175.74 275.195C172.852 283.238 170.043 291.033 167.25 298.796C169.891 300.185 172.245 301.158 174.288 302.578C175.732 303.584 177.479 305.044 177.759 306.552C177.966 307.677 176.123 309.273 174.966 310.43C174.83 310.565 172.429 309.201 172.469 308.642C172.852 303.783 169.205 303.68 165.798 302.515C162.822 310.533 159.926 318.321 156.99 326.22C159.822 327.648 162.551 328.741 164.945 330.337C166.245 331.207 167.665 332.906 167.729 334.294C167.785 335.435 166.03 336.824 164.809 337.733C164.514 337.949 162.296 336.544 162.367 336.122C163.237 330.919 158.713 331.605 156.176 329.922ZM369.434 220.324C367.791 225.758 366.227 230.689 364.807 235.66C356.876 263.506 348.977 291.352 341.086 319.206C335.405 339.265 329.724 359.316 324.123 379.399C322.918 383.723 320.285 387.106 316.224 388.199C311.739 389.404 306.808 390.003 302.205 389.548C286.869 388.04 271.59 385.957 256.294 384.074C227.283 380.5 198.28 376.838 169.261 373.383C163.74 372.72 158.498 371.907 154.676 366.808C154.612 372.09 157.285 375.202 163.181 376.383C169.429 377.635 175.748 378.569 182.075 379.383C208.565 382.798 235.055 386.157 261.56 389.46C278.699 391.598 295.838 393.729 313.008 395.604C323.867 396.785 328 393.657 330.905 383.253C339.881 351.146 348.881 319.039 357.929 286.948C363.043 268.796 368.262 250.676 373.456 232.548C374.828 227.745 374.174 223.636 369.434 220.324ZM156.702 361.127C158.059 366.696 161.53 368.811 165.982 369.553C170.57 370.311 175.197 370.806 179.809 371.364C210.544 375.098 241.286 378.824 272.021 382.542C283.502 383.931 294.968 385.439 306.465 386.62C313.758 387.37 319.926 383.372 321.569 377.588C329.883 348.321 338.205 319.063 346.607 289.82C353.397 266.203 360.291 242.609 367.16 219.016C368.206 215.425 367.121 212.697 364.184 210.032C354.067 245.043 344.126 279.496 334.168 313.94C329.077 331.55 324.003 349.175 318.849 366.768C316.447 374.963 309.928 379.782 302.42 378.864C263.898 374.173 225.392 369.401 186.87 364.686C177.025 363.481 167.155 362.356 156.702 361.127ZM182.131 247.628C175.876 246.24 171.822 247.317 170.849 250.373C169.788 253.684 172.668 257.235 178.158 258.99C179.466 255.232 180.791 251.458 182.131 247.628ZM148.029 340.781C149.49 336.927 150.934 333.105 152.402 329.22C146.729 327.831 142.476 329.028 141.303 331.996C140.122 334.973 142.572 338.308 148.029 340.781ZM172.58 274.493C167.203 272.642 162.455 274.014 161.609 277.325C160.764 280.653 163.764 284.195 168.679 285.432C169.947 281.873 171.224 278.299 172.58 274.493ZM195.352 211.029C196.772 207.183 198.184 203.337 199.629 199.404C193.134 198.055 189.272 199.204 188.323 202.436C187.405 205.603 190.206 209.186 195.352 211.029ZM191.115 222.455C185.482 220.811 181.341 222.12 180.336 225.471C179.434 228.495 182.163 231.95 187.174 233.753C188.458 230.075 189.743 226.396 191.115 222.455ZM162.774 301.573C156.104 300.552 152.625 301.549 151.692 304.461C150.734 307.446 152.841 310.318 158.402 313.11C159.83 309.329 161.25 305.602 162.774 301.573Z" fill="black"/>
<path d="M156.176 329.922C158.713 331.606 163.237 330.927 162.359 336.13C162.287 336.553 164.506 337.957 164.801 337.741C166.029 336.832 167.777 335.444 167.721 334.303C167.657 332.914 166.237 331.215 164.936 330.345C162.543 328.741 159.806 327.648 156.981 326.228C159.918 318.329 162.806 310.542 165.79 302.523C169.205 303.688 172.843 303.791 172.46 308.651C172.413 309.209 174.814 310.573 174.958 310.438C176.115 309.281 177.958 307.685 177.75 306.56C177.471 305.052 175.732 303.592 174.28 302.587C172.229 301.166 169.883 300.193 167.242 298.805C170.035 291.041 172.835 283.246 175.732 275.203C179.019 276.472 182.889 276.392 182.051 281.427C181.979 281.85 183.902 283.222 184.676 283.062C186.751 282.64 188.578 281.283 187.461 278.842C186.79 277.381 185.402 276.073 184.038 275.139C181.987 273.735 179.665 272.714 177.128 271.349C179.833 263.738 182.522 256.174 185.282 248.394C188.49 249.607 192.104 249.471 191.227 254.187C191.147 254.61 193.708 256.094 193.916 255.894C195.096 254.785 196.756 253.237 196.644 251.977C196.525 250.652 194.777 249.224 193.421 248.322C191.362 246.942 189.025 245.961 186.543 244.676C189.168 237.375 191.745 230.203 194.426 222.742C197.538 224.234 201.184 224.059 200.49 228.647C200.418 229.101 203.179 230.538 203.331 230.37C204.408 229.165 206.059 227.418 205.764 226.301C205.365 224.785 203.554 223.46 202.07 222.463C200.227 221.226 198.096 220.404 195.679 219.192C198.057 212.809 200.402 206.521 202.828 200.027C205.972 201.168 209.793 200.904 208.804 205.867C208.716 206.306 210.974 207.734 211.11 207.606C212.339 206.457 213.974 205.149 214.174 203.705C214.317 202.644 212.706 201.008 211.493 200.17C209.442 198.758 207.105 197.776 204.934 196.636C206.466 186.367 211.573 182.505 221.459 183.47C254.252 186.686 287.053 189.774 319.846 192.901C331.75 194.034 343.655 195.12 355.559 196.284C361.719 196.883 364.112 200.489 362.373 206.497C350.237 248.474 338.077 290.443 325.926 332.412C322.75 343.382 319.63 354.369 316.327 365.292C313.878 373.399 308.643 376.463 300.321 375.426C270.137 371.667 239.93 368.029 209.738 364.319C191.937 362.133 174.136 359.955 156.343 357.657C149.098 356.723 146.952 353.005 149.481 346.263C151.396 341.164 153.343 336.082 155.29 330.999C155.386 330.76 155.625 330.584 156.176 329.922Z" fill="#EDF2F6"/>
<path d="M369.435 220.324C374.174 223.635 374.828 227.745 373.456 232.532C368.262 250.66 363.051 268.78 357.929 286.932C348.881 319.023 339.881 351.121 330.905 383.236C327.992 393.649 323.867 396.776 313.008 395.588C295.838 393.721 278.699 391.582 261.561 389.444C235.063 386.141 208.565 382.782 182.075 379.367C175.756 378.553 169.429 377.619 163.181 376.367C157.277 375.186 154.612 372.074 154.676 366.792C158.498 371.882 163.732 372.704 169.261 373.367C198.288 376.829 227.283 380.484 256.295 384.058C271.59 385.941 286.869 388.024 302.205 389.532C306.809 389.986 311.74 389.388 316.224 388.183C320.285 387.09 322.91 383.707 324.123 379.383C329.724 359.308 335.405 339.249 341.086 319.19C348.977 291.336 356.884 263.482 364.807 235.644C366.219 230.689 367.791 225.758 369.435 220.324Z" fill="#888DA8"/>
<path d="M156.702 361.128C167.154 362.356 177.024 363.473 186.878 364.686C225.392 369.402 263.906 374.173 302.428 378.865C309.936 379.782 316.455 374.963 318.856 366.769C324.011 349.175 329.085 331.558 334.176 313.941C344.133 279.496 354.075 245.043 364.192 210.032C367.128 212.697 368.213 215.426 367.168 219.016C360.298 242.61 353.405 266.203 346.615 289.821C338.213 319.063 329.891 348.322 321.577 377.588C319.933 383.365 313.766 387.37 306.473 386.62C294.976 385.439 283.502 383.931 272.028 382.543C241.286 378.825 210.551 375.099 179.817 371.365C175.197 370.806 170.569 370.311 165.99 369.553C161.529 368.811 158.059 366.697 156.702 361.128Z" fill="#D9E0E5"/>
<path d="M182.131 247.628C180.79 251.458 179.466 255.224 178.149 258.99C172.66 257.234 169.78 253.684 170.841 250.373C171.822 247.325 175.875 246.248 182.131 247.628Z" fill="white"/>
<path d="M148.029 340.781C142.572 338.307 140.122 334.972 141.303 331.996C142.476 329.028 146.729 327.831 152.402 329.22C150.925 333.105 149.481 336.927 148.029 340.781Z" fill="white"/>
<path d="M172.58 274.492C171.224 278.306 169.947 281.881 168.678 285.431C163.756 284.187 160.763 280.652 161.609 277.325C162.455 274.006 167.202 272.641 172.58 274.492Z" fill="white"/>
<path d="M195.352 211.029C190.205 209.186 187.405 205.604 188.33 202.436C189.28 199.205 193.142 198.056 199.636 199.404C198.184 203.338 196.772 207.183 195.352 211.029Z" fill="white"/>
<path d="M191.115 222.454C189.743 226.396 188.458 230.074 187.182 233.752C182.171 231.949 179.434 228.494 180.344 225.47C181.341 222.119 185.482 220.811 191.115 222.454Z" fill="white"/>
<path d="M162.774 301.573C161.243 305.602 159.83 309.336 158.394 313.11C152.833 310.318 150.726 307.445 151.684 304.461C152.625 301.549 156.112 300.552 162.774 301.573Z" fill="white"/>
<path d="M127.312 132.976C126.519 131.646 125.632 130.222 124.652 128.706C123.672 127.166 122.657 125.626 121.607 124.086C120.557 122.522 119.484 121.017 118.387 119.571C117.314 118.101 116.287 116.782 115.307 115.616V132.976H110.967V108.721H114.572C115.505 109.701 116.509 110.867 117.582 112.221C118.655 113.551 119.729 114.939 120.802 116.386C121.899 117.832 122.949 119.291 123.952 120.761C124.979 122.207 125.889 123.561 126.682 124.821V108.721H131.057V132.976H127.312ZM153.22 123.806C153.22 125.252 153.01 126.571 152.59 127.761C152.17 128.951 151.575 129.966 150.805 130.806C150.035 131.646 149.102 132.299 148.005 132.766C146.932 133.232 145.742 133.466 144.435 133.466C143.129 133.466 141.939 133.232 140.865 132.766C139.792 132.299 138.87 131.646 138.1 130.806C137.33 129.966 136.724 128.951 136.28 127.761C135.86 126.571 135.65 125.252 135.65 123.806C135.65 122.359 135.86 121.052 136.28 119.886C136.724 118.696 137.33 117.681 138.1 116.841C138.894 116.001 139.827 115.359 140.9 114.916C141.974 114.449 143.152 114.216 144.435 114.216C145.719 114.216 146.897 114.449 147.97 114.916C149.067 115.359 150 116.001 150.77 116.841C151.54 117.681 152.135 118.696 152.555 119.886C152.999 121.052 153.22 122.359 153.22 123.806ZM148.88 123.806C148.88 121.986 148.484 120.551 147.69 119.501C146.92 118.427 145.835 117.891 144.435 117.891C143.035 117.891 141.939 118.427 141.145 119.501C140.375 120.551 139.99 121.986 139.99 123.806C139.99 125.649 140.375 127.107 141.145 128.181C141.939 129.254 143.035 129.791 144.435 129.791C145.835 129.791 146.92 129.254 147.69 128.181C148.484 127.107 148.88 125.649 148.88 123.806ZM177.897 123.911C177.897 122.021 177.465 120.551 176.602 119.501C175.762 118.451 174.397 117.926 172.507 117.926C172.11 117.926 171.69 117.949 171.247 117.996C170.827 118.019 170.407 118.089 169.987 118.206V128.671C170.36 128.927 170.85 129.172 171.457 129.406C172.087 129.616 172.752 129.721 173.452 129.721C174.992 129.721 176.112 129.196 176.812 128.146C177.535 127.096 177.897 125.684 177.897 123.911ZM182.237 123.841C182.237 125.241 182.05 126.524 181.677 127.691C181.327 128.857 180.814 129.861 180.137 130.701C179.46 131.541 178.609 132.194 177.582 132.661C176.579 133.127 175.435 133.361 174.152 133.361C173.289 133.361 172.495 133.256 171.772 133.046C171.049 132.836 170.454 132.602 169.987 132.346V139.451H165.752V115.266C166.615 115.032 167.677 114.811 168.937 114.601C170.197 114.391 171.527 114.286 172.927 114.286C174.374 114.286 175.669 114.507 176.812 114.951C177.955 115.394 178.924 116.036 179.717 116.876C180.534 117.692 181.152 118.696 181.572 119.886C182.015 121.052 182.237 122.371 182.237 123.841ZM203.157 123.806C203.157 125.252 202.947 126.571 202.527 127.761C202.107 128.951 201.512 129.966 200.742 130.806C199.972 131.646 199.038 132.299 197.942 132.766C196.868 133.232 195.678 133.466 194.372 133.466C193.065 133.466 191.875 133.232 190.802 132.766C189.728 132.299 188.807 131.646 188.037 130.806C187.267 129.966 186.66 128.951 186.217 127.761C185.797 126.571 185.587 125.252 185.587 123.806C185.587 122.359 185.797 121.052 186.217 119.886C186.66 118.696 187.267 117.681 188.037 116.841C188.83 116.001 189.763 115.359 190.837 114.916C191.91 114.449 193.088 114.216 194.372 114.216C195.655 114.216 196.833 114.449 197.907 114.916C199.003 115.359 199.937 116.001 200.707 116.841C201.477 117.681 202.072 118.696 202.492 119.886C202.935 121.052 203.157 122.359 203.157 123.806ZM198.817 123.806C198.817 121.986 198.42 120.551 197.627 119.501C196.857 118.427 195.772 117.891 194.372 117.891C192.972 117.891 191.875 118.427 191.082 119.501C190.312 120.551 189.927 121.986 189.927 123.806C189.927 125.649 190.312 127.107 191.082 128.181C191.875 129.254 192.972 129.791 194.372 129.791C195.772 129.791 196.857 129.254 197.627 128.181C198.42 127.107 198.817 125.649 198.817 123.806ZM212.105 129.931C213.225 129.931 214.041 129.802 214.555 129.546C215.068 129.266 215.325 128.799 215.325 128.146C215.325 127.539 215.045 127.037 214.485 126.641C213.948 126.244 213.05 125.812 211.79 125.346C211.02 125.066 210.308 124.774 209.655 124.471C209.025 124.144 208.476 123.771 208.01 123.351C207.543 122.931 207.17 122.429 206.89 121.846C206.633 121.239 206.505 120.504 206.505 119.641C206.505 117.961 207.123 116.642 208.36 115.686C209.596 114.706 211.276 114.216 213.4 114.216C214.473 114.216 215.5 114.321 216.48 114.531C217.46 114.717 218.195 114.904 218.685 115.091L217.915 118.521C217.448 118.311 216.853 118.124 216.13 117.961C215.406 117.774 214.566 117.681 213.61 117.681C212.746 117.681 212.046 117.832 211.51 118.136C210.973 118.416 210.705 118.859 210.705 119.466C210.705 119.769 210.751 120.037 210.845 120.271C210.961 120.504 211.148 120.726 211.405 120.936C211.661 121.122 212 121.321 212.42 121.531C212.84 121.717 213.353 121.916 213.96 122.126C214.963 122.499 215.815 122.872 216.515 123.246C217.215 123.596 217.786 124.004 218.23 124.471C218.696 124.914 219.035 125.427 219.245 126.011C219.455 126.594 219.56 127.294 219.56 128.111C219.56 129.861 218.906 131.191 217.6 132.101C216.316 132.987 214.473 133.431 212.07 133.431C210.46 133.431 209.165 133.291 208.185 133.011C207.205 132.754 206.516 132.544 206.12 132.381L206.855 128.846C207.485 129.102 208.231 129.347 209.095 129.581C209.981 129.814 210.985 129.931 212.105 129.931ZM223.306 109.841L227.541 109.141V114.671H234.051V118.206H227.541V125.661C227.541 127.131 227.774 128.181 228.241 128.811C228.707 129.441 229.501 129.756 230.621 129.756C231.391 129.756 232.067 129.674 232.651 129.511C233.257 129.347 233.736 129.196 234.086 129.056L234.786 132.416C234.296 132.626 233.654 132.836 232.861 133.046C232.067 133.279 231.134 133.396 230.061 133.396C228.754 133.396 227.657 133.221 226.771 132.871C225.907 132.521 225.219 132.019 224.706 131.366C224.192 130.689 223.831 129.884 223.621 128.951C223.411 127.994 223.306 126.909 223.306 125.696V109.841ZM242.73 129.931C243.85 129.931 244.666 129.802 245.18 129.546C245.693 129.266 245.95 128.799 245.95 128.146C245.95 127.539 245.67 127.037 245.11 126.641C244.573 126.244 243.675 125.812 242.415 125.346C241.645 125.066 240.933 124.774 240.28 124.471C239.65 124.144 239.101 123.771 238.635 123.351C238.168 122.931 237.795 122.429 237.515 121.846C237.258 121.239 237.13 120.504 237.13 119.641C237.13 117.961 237.748 116.642 238.985 115.686C240.221 114.706 241.901 114.216 244.025 114.216C245.098 114.216 246.125 114.321 247.105 114.531C248.085 114.717 248.82 114.904 249.31 115.091L248.54 118.521C248.073 118.311 247.478 118.124 246.755 117.961C246.031 117.774 245.191 117.681 244.235 117.681C243.371 117.681 242.671 117.832 242.135 118.136C241.598 118.416 241.33 118.859 241.33 119.466C241.33 119.769 241.376 120.037 241.47 120.271C241.586 120.504 241.773 120.726 242.03 120.936C242.286 121.122 242.625 121.321 243.045 121.531C243.465 121.717 243.978 121.916 244.585 122.126C245.588 122.499 246.44 122.872 247.14 123.246C247.84 123.596 248.411 124.004 248.855 124.471C249.321 124.914 249.66 125.427 249.87 126.011C250.08 126.594 250.185 127.294 250.185 128.111C250.185 129.861 249.531 131.191 248.225 132.101C246.941 132.987 245.098 133.431 242.695 133.431C241.085 133.431 239.79 133.291 238.81 133.011C237.83 132.754 237.141 132.544 236.745 132.381L237.48 128.846C238.11 129.102 238.856 129.347 239.72 129.581C240.606 129.814 241.61 129.931 242.73 129.931ZM268.75 130.001C270.056 130.001 271.048 129.931 271.725 129.791V125.101C271.491 125.031 271.153 124.961 270.71 124.891C270.266 124.821 269.776 124.786 269.24 124.786C268.773 124.786 268.295 124.821 267.805 124.891C267.338 124.961 266.906 125.089 266.51 125.276C266.136 125.462 265.833 125.731 265.6 126.081C265.366 126.407 265.25 126.827 265.25 127.341C265.25 128.344 265.565 129.044 266.195 129.441C266.825 129.814 267.676 130.001 268.75 130.001ZM268.4 114.216C269.8 114.216 270.978 114.391 271.935 114.741C272.891 115.091 273.65 115.581 274.21 116.211C274.793 116.841 275.201 117.611 275.435 118.521C275.691 119.407 275.82 120.387 275.82 121.461V132.556C275.166 132.696 274.175 132.859 272.845 133.046C271.538 133.256 270.056 133.361 268.4 133.361C267.303 133.361 266.3 133.256 265.39 133.046C264.48 132.836 263.698 132.497 263.045 132.031C262.415 131.564 261.913 130.957 261.54 130.211C261.19 129.464 261.015 128.542 261.015 127.446C261.015 126.396 261.213 125.509 261.61 124.786C262.03 124.062 262.59 123.479 263.29 123.036C263.99 122.569 264.795 122.242 265.705 122.056C266.638 121.846 267.606 121.741 268.61 121.741C269.076 121.741 269.566 121.776 270.08 121.846C270.593 121.892 271.141 121.986 271.725 122.126V121.426C271.725 120.936 271.666 120.469 271.55 120.026C271.433 119.582 271.223 119.197 270.92 118.871C270.64 118.521 270.255 118.252 269.765 118.066C269.298 117.879 268.703 117.786 267.98 117.786C267 117.786 266.101 117.856 265.285 117.996C264.468 118.136 263.803 118.299 263.29 118.486L262.765 115.056C263.301 114.869 264.083 114.682 265.11 114.496C266.136 114.309 267.233 114.216 268.4 114.216ZM285.252 132.976C284.085 130.572 282.883 127.819 281.647 124.716C280.433 121.589 279.325 118.241 278.322 114.671H282.837C283.093 115.697 283.385 116.806 283.712 117.996C284.062 119.162 284.423 120.341 284.797 121.531C285.193 122.697 285.59 123.841 285.987 124.961C286.407 126.057 286.792 127.049 287.142 127.936C287.492 127.049 287.865 126.057 288.262 124.961C288.658 123.841 289.043 122.697 289.417 121.531C289.813 120.341 290.187 119.162 290.537 117.996C290.887 116.806 291.19 115.697 291.447 114.671H295.822C294.818 118.241 293.698 121.589 292.462 124.716C291.248 127.819 290.058 130.572 288.892 132.976H285.252ZM305.425 130.001C306.731 130.001 307.723 129.931 308.4 129.791V125.101C308.166 125.031 307.828 124.961 307.385 124.891C306.941 124.821 306.451 124.786 305.915 124.786C305.448 124.786 304.97 124.821 304.48 124.891C304.013 124.961 303.581 125.089 303.185 125.276C302.811 125.462 302.508 125.731 302.275 126.081C302.041 126.407 301.925 126.827 301.925 127.341C301.925 128.344 302.24 129.044 302.87 129.441C303.5 129.814 304.351 130.001 305.425 130.001ZM305.075 114.216C306.475 114.216 307.653 114.391 308.61 114.741C309.566 115.091 310.325 115.581 310.885 116.211C311.468 116.841 311.876 117.611 312.11 118.521C312.366 119.407 312.495 120.387 312.495 121.461V132.556C311.841 132.696 310.85 132.859 309.52 133.046C308.213 133.256 306.731 133.361 305.075 133.361C303.978 133.361 302.975 133.256 302.065 133.046C301.155 132.836 300.373 132.497 299.72 132.031C299.09 131.564 298.588 130.957 298.215 130.211C297.865 129.464 297.69 128.542 297.69 127.446C297.69 126.396 297.888 125.509 298.285 124.786C298.705 124.062 299.265 123.479 299.965 123.036C300.665 122.569 301.47 122.242 302.38 122.056C303.313 121.846 304.281 121.741 305.285 121.741C305.751 121.741 306.241 121.776 306.755 121.846C307.268 121.892 307.816 121.986 308.4 122.126V121.426C308.4 120.936 308.341 120.469 308.225 120.026C308.108 119.582 307.898 119.197 307.595 118.871C307.315 118.521 306.93 118.252 306.44 118.066C305.973 117.879 305.378 117.786 304.655 117.786C303.675 117.786 302.776 117.856 301.96 117.996C301.143 118.136 300.478 118.299 299.965 118.486L299.44 115.056C299.976 114.869 300.758 114.682 301.785 114.496C302.811 114.309 303.908 114.216 305.075 114.216ZM321.951 132.976H317.716V114.671H321.951V132.976ZM322.406 109.316C322.406 110.109 322.149 110.739 321.636 111.206C321.123 111.672 320.516 111.906 319.816 111.906C319.093 111.906 318.474 111.672 317.961 111.206C317.448 110.739 317.191 110.109 317.191 109.316C317.191 108.499 317.448 107.857 317.961 107.391C318.474 106.924 319.093 106.691 319.816 106.691C320.516 106.691 321.123 106.924 321.636 107.391C322.149 107.857 322.406 108.499 322.406 109.316ZM333.724 133.326C332.464 133.302 331.414 133.162 330.574 132.906C329.757 132.649 329.104 132.287 328.614 131.821C328.124 131.331 327.774 130.736 327.564 130.036C327.377 129.312 327.284 128.496 327.284 127.586V106.516L331.519 105.816V126.781C331.519 127.294 331.554 127.726 331.624 128.076C331.717 128.426 331.869 128.729 332.079 128.986C332.289 129.219 332.569 129.406 332.919 129.546C333.292 129.662 333.759 129.756 334.319 129.826L333.724 133.326ZM344.184 130.001C345.491 130.001 346.483 129.931 347.159 129.791V125.101C346.926 125.031 346.588 124.961 346.144 124.891C345.701 124.821 345.211 124.786 344.674 124.786C344.208 124.786 343.729 124.821 343.239 124.891C342.773 124.961 342.341 125.089 341.944 125.276C341.571 125.462 341.268 125.731 341.034 126.081C340.801 126.407 340.684 126.827 340.684 127.341C340.684 128.344 340.999 129.044 341.629 129.441C342.259 129.814 343.111 130.001 344.184 130.001ZM343.834 114.216C345.234 114.216 346.413 114.391 347.369 114.741C348.326 115.091 349.084 115.581 349.644 116.211C350.228 116.841 350.636 117.611 350.869 118.521C351.126 119.407 351.254 120.387 351.254 121.461V132.556C350.601 132.696 349.609 132.859 348.279 133.046C346.973 133.256 345.491 133.361 343.834 133.361C342.738 133.361 341.734 133.256 340.824 133.046C339.914 132.836 339.133 132.497 338.479 132.031C337.849 131.564 337.348 130.957 336.974 130.211C336.624 129.464 336.449 128.542 336.449 127.446C336.449 126.396 336.648 125.509 337.044 124.786C337.464 124.062 338.024 123.479 338.724 123.036C339.424 122.569 340.229 122.242 341.139 122.056C342.073 121.846 343.041 121.741 344.044 121.741C344.511 121.741 345.001 121.776 345.514 121.846C346.028 121.892 346.576 121.986 347.159 122.126V121.426C347.159 120.936 347.101 120.469 346.984 120.026C346.868 119.582 346.658 119.197 346.354 118.871C346.074 118.521 345.689 118.252 345.199 118.066C344.733 117.879 344.138 117.786 343.414 117.786C342.434 117.786 341.536 117.856 340.719 117.996C339.903 118.136 339.238 118.299 338.724 118.486L338.199 115.056C338.736 114.869 339.518 114.682 340.544 114.496C341.571 114.309 342.668 114.216 343.834 114.216ZM368.586 123.771C368.586 121.974 368.224 120.551 367.501 119.501C366.801 118.451 365.681 117.926 364.141 117.926C363.441 117.926 362.776 118.031 362.146 118.241C361.539 118.451 361.049 118.684 360.676 118.941V129.476C360.979 129.546 361.364 129.616 361.831 129.686C362.321 129.732 362.904 129.756 363.581 129.756C365.144 129.756 366.369 129.231 367.256 128.181C368.142 127.107 368.586 125.637 368.586 123.771ZM372.926 123.841C372.926 125.311 372.704 126.641 372.261 127.831C371.841 128.997 371.222 130.001 370.406 130.841C369.612 131.681 368.644 132.322 367.501 132.766C366.357 133.209 365.062 133.431 363.616 133.431C362.216 133.431 360.874 133.326 359.591 133.116C358.331 132.906 357.281 132.672 356.441 132.416V106.516L360.676 105.816V115.301C361.166 115.044 361.761 114.811 362.461 114.601C363.184 114.391 363.977 114.286 364.841 114.286C366.124 114.286 367.267 114.519 368.271 114.986C369.297 115.429 370.149 116.071 370.826 116.911C371.502 117.751 372.016 118.766 372.366 119.956C372.739 121.122 372.926 122.417 372.926 123.841ZM383.66 133.326C382.4 133.302 381.35 133.162 380.51 132.906C379.694 132.649 379.04 132.287 378.55 131.821C378.06 131.331 377.71 130.736 377.5 130.036C377.314 129.312 377.22 128.496 377.22 127.586V106.516L381.455 105.816V126.781C381.455 127.294 381.49 127.726 381.56 128.076C381.654 128.426 381.805 128.729 382.015 128.986C382.225 129.219 382.505 129.406 382.855 129.546C383.229 129.662 383.695 129.756 384.255 129.826L383.66 133.326ZM386.666 123.911C386.666 122.301 386.899 120.889 387.366 119.676C387.856 118.462 388.498 117.459 389.291 116.666C390.084 115.849 390.994 115.242 392.021 114.846C393.048 114.426 394.098 114.216 395.171 114.216C397.691 114.216 399.651 114.997 401.051 116.561C402.474 118.124 403.186 120.457 403.186 123.561C403.186 123.794 403.174 124.062 403.151 124.366C403.151 124.646 403.139 124.902 403.116 125.136H391.041C391.158 126.606 391.671 127.749 392.581 128.566C393.514 129.359 394.856 129.756 396.606 129.756C397.633 129.756 398.566 129.662 399.406 129.476C400.269 129.289 400.946 129.091 401.436 128.881L401.996 132.346C401.763 132.462 401.436 132.591 401.016 132.731C400.619 132.847 400.153 132.952 399.616 133.046C399.103 133.162 398.543 133.256 397.936 133.326C397.329 133.396 396.711 133.431 396.081 133.431C394.471 133.431 393.071 133.197 391.881 132.731C390.691 132.241 389.711 131.576 388.941 130.736C388.171 129.872 387.599 128.869 387.226 127.726C386.853 126.559 386.666 125.287 386.666 123.911ZM398.951 122.021C398.951 121.437 398.869 120.889 398.706 120.376C398.543 119.839 398.298 119.384 397.971 119.011C397.668 118.614 397.283 118.311 396.816 118.101C396.373 117.867 395.836 117.751 395.206 117.751C394.553 117.751 393.981 117.879 393.491 118.136C393.001 118.369 392.581 118.684 392.231 119.081C391.904 119.477 391.648 119.932 391.461 120.446C391.274 120.959 391.146 121.484 391.076 122.021H398.951Z" fill="#888DA8"/>
</svg>
